<mxfile host="app.diagrams.net" modified="2023-09-08T13:21:56.055Z" agent="Mozilla/5.0 (Macintosh; Intel Mac OS X 10_15_7) AppleWebKit/605.1.15 (KHTML, like Gecko) Version/16.6 Safari/605.1.15" etag="8NNaJ7Tt4H_FGhaJOkOc" version="21.7.3" type="github" pages="2">
  <diagram name="Page-1" id="uqn7pxz_R6eFRbqV5hLK">
    <mxGraphModel dx="879" dy="1505" grid="0" gridSize="10" guides="1" tooltips="1" connect="1" arrows="1" fold="1" page="0" pageScale="1" pageWidth="850" pageHeight="1100" math="0" shadow="0">
      <root>
        <mxCell id="0" />
        <mxCell id="1" parent="0" />
        <mxCell id="mjfp_0dpgwshqfBZke9N-1" value="Начало" style="rounded=1;whiteSpace=wrap;html=1;fontSize=16;" parent="1" vertex="1">
          <mxGeometry x="102" y="-113" width="120" height="60" as="geometry" />
        </mxCell>
        <mxCell id="mjfp_0dpgwshqfBZke9N-3" value="" style="shape=singleArrow;direction=south;whiteSpace=wrap;html=1;fontSize=16;" parent="1" vertex="1">
          <mxGeometry x="125" y="-53" width="60" height="100" as="geometry" />
        </mxCell>
        <mxCell id="mjfp_0dpgwshqfBZke9N-4" value="Пользователь нажал кнопку «Заказать»" style="shape=ext;double=1;rounded=0;whiteSpace=wrap;html=1;fontSize=16;" parent="1" vertex="1">
          <mxGeometry x="52" y="51" width="199" height="101" as="geometry" />
        </mxCell>
        <mxCell id="mjfp_0dpgwshqfBZke9N-5" value="" style="shape=singleArrow;direction=south;whiteSpace=wrap;html=1;fontSize=16;" parent="1" vertex="1">
          <mxGeometry x="125" y="152" width="60" height="100" as="geometry" />
        </mxCell>
        <mxCell id="mjfp_0dpgwshqfBZke9N-6" value="Данные корректны?" style="html=1;whiteSpace=wrap;aspect=fixed;shape=isoRectangle;fontSize=16;" parent="1" vertex="1">
          <mxGeometry x="35" y="252" width="240" height="144" as="geometry" />
        </mxCell>
        <mxCell id="mjfp_0dpgwshqfBZke9N-9" style="edgeStyle=none;curved=1;rounded=0;orthogonalLoop=1;jettySize=auto;html=1;fontSize=12;startSize=8;endSize=8;" parent="1" edge="1">
          <mxGeometry relative="1" as="geometry">
            <mxPoint x="450.33333333333326" y="345.6666666666665" as="targetPoint" />
            <mxPoint x="449.4705882352939" y="343" as="sourcePoint" />
          </mxGeometry>
        </mxCell>
        <mxCell id="mjfp_0dpgwshqfBZke9N-13" value="" style="shape=singleArrow;direction=west;whiteSpace=wrap;html=1;fontSize=16;" parent="1" vertex="1">
          <mxGeometry x="-62" y="294" width="100" height="60" as="geometry" />
        </mxCell>
        <mxCell id="mjfp_0dpgwshqfBZke9N-16" style="edgeStyle=none;curved=1;rounded=0;orthogonalLoop=1;jettySize=auto;html=1;fontSize=12;startSize=8;endSize=8;" parent="1" edge="1">
          <mxGeometry relative="1" as="geometry">
            <mxPoint x="-64" y="313.58064516129025" as="sourcePoint" />
            <mxPoint x="-64" y="328.41935483870975" as="targetPoint" />
          </mxGeometry>
        </mxCell>
        <mxCell id="mjfp_0dpgwshqfBZke9N-17" style="edgeStyle=none;curved=1;rounded=0;orthogonalLoop=1;jettySize=auto;html=1;fontSize=12;startSize=8;endSize=8;" parent="1" edge="1">
          <mxGeometry relative="1" as="geometry">
            <mxPoint x="-64" y="313.58064516129025" as="sourcePoint" />
            <mxPoint x="-64" y="328.41935483870975" as="targetPoint" />
          </mxGeometry>
        </mxCell>
        <mxCell id="mjfp_0dpgwshqfBZke9N-18" value="Вывод сообщения об ошибке" style="shape=ext;double=1;rounded=0;whiteSpace=wrap;html=1;fontSize=16;" parent="1" vertex="1">
          <mxGeometry x="-192" y="284" width="120" height="80" as="geometry" />
        </mxCell>
        <mxCell id="mjfp_0dpgwshqfBZke9N-20" value="Нет" style="text;strokeColor=none;fillColor=none;html=1;align=center;verticalAlign=middle;whiteSpace=wrap;rounded=0;fontSize=16;" parent="1" vertex="1">
          <mxGeometry x="-19" y="352" width="44" height="30" as="geometry" />
        </mxCell>
        <mxCell id="mjfp_0dpgwshqfBZke9N-21" value="" style="shape=singleArrow;direction=south;whiteSpace=wrap;html=1;fontSize=16;" parent="1" vertex="1">
          <mxGeometry x="121.5" y="396" width="60" height="100" as="geometry" />
        </mxCell>
        <mxCell id="mjfp_0dpgwshqfBZke9N-22" value="Да" style="text;strokeColor=none;fillColor=none;html=1;align=center;verticalAlign=middle;whiteSpace=wrap;rounded=0;fontSize=16;" parent="1" vertex="1">
          <mxGeometry x="89" y="413" width="36" height="40" as="geometry" />
        </mxCell>
        <mxCell id="mjfp_0dpgwshqfBZke9N-23" value="Проверка уникальности полей «Email” и «Телефон»" style="shape=ext;double=1;rounded=0;whiteSpace=wrap;html=1;fontSize=16;" parent="1" vertex="1">
          <mxGeometry x="91.5" y="501" width="120" height="80" as="geometry" />
        </mxCell>
        <mxCell id="mjfp_0dpgwshqfBZke9N-24" value="" style="shape=singleArrow;direction=south;whiteSpace=wrap;html=1;fontSize=16;" parent="1" vertex="1">
          <mxGeometry x="121.5" y="584" width="60" height="100" as="geometry" />
        </mxCell>
        <mxCell id="mjfp_0dpgwshqfBZke9N-25" value="Данные уникальны?" style="html=1;whiteSpace=wrap;aspect=fixed;shape=isoRectangle;fontSize=16;" parent="1" vertex="1">
          <mxGeometry x="51.75" y="684" width="199.5" height="119.7" as="geometry" />
        </mxCell>
      </root>
    </mxGraphModel>
  </diagram>
  <diagram id="2YmOWKn88-E2V_co5Lz-" name="Page-2">
    <mxGraphModel dx="879" dy="1505" grid="0" gridSize="10" guides="1" tooltips="1" connect="1" arrows="1" fold="1" page="0" pageScale="1" pageWidth="850" pageHeight="1100" math="0" shadow="0">
      <root>
        <mxCell id="0" />
        <mxCell id="1" parent="0" />
        <mxCell id="wsuwHOxKP2U0V3yTg3ei-1" style="edgeStyle=none;rounded=0;orthogonalLoop=1;jettySize=auto;html=1;exitX=0;exitY=0.5;exitDx=0;exitDy=0;entryX=1;entryY=0.5;entryDx=0;entryDy=0;" edge="1" parent="1" source="wsuwHOxKP2U0V3yTg3ei-3" target="wsuwHOxKP2U0V3yTg3ei-8">
          <mxGeometry relative="1" as="geometry">
            <mxPoint x="270" y="380" as="targetPoint" />
          </mxGeometry>
        </mxCell>
        <mxCell id="wsuwHOxKP2U0V3yTg3ei-2" style="edgeStyle=none;rounded=0;orthogonalLoop=1;jettySize=auto;html=1;exitX=1;exitY=0.5;exitDx=0;exitDy=0;" edge="1" parent="1" source="wsuwHOxKP2U0V3yTg3ei-3">
          <mxGeometry relative="1" as="geometry">
            <mxPoint x="530" y="380" as="targetPoint" />
          </mxGeometry>
        </mxCell>
        <mxCell id="wsuwHOxKP2U0V3yTg3ei-3" value="Яндекс Маршруты" style="rounded=1;whiteSpace=wrap;html=1;arcSize=22;" vertex="1" parent="1">
          <mxGeometry x="340" y="360" width="120" height="40" as="geometry" />
        </mxCell>
        <mxCell id="wsuwHOxKP2U0V3yTg3ei-4" style="edgeStyle=none;rounded=0;orthogonalLoop=1;jettySize=auto;html=1;exitX=0;exitY=0.5;exitDx=0;exitDy=0;entryX=1;entryY=0.5;entryDx=0;entryDy=0;" edge="1" parent="1" source="wsuwHOxKP2U0V3yTg3ei-8" target="wsuwHOxKP2U0V3yTg3ei-18">
          <mxGeometry relative="1" as="geometry" />
        </mxCell>
        <mxCell id="wsuwHOxKP2U0V3yTg3ei-5" style="rounded=0;orthogonalLoop=1;jettySize=auto;html=1;exitX=0;exitY=0.5;exitDx=0;exitDy=0;entryX=1;entryY=0.5;entryDx=0;entryDy=0;" edge="1" parent="1" source="wsuwHOxKP2U0V3yTg3ei-8" target="wsuwHOxKP2U0V3yTg3ei-21">
          <mxGeometry relative="1" as="geometry" />
        </mxCell>
        <mxCell id="wsuwHOxKP2U0V3yTg3ei-6" style="edgeStyle=none;rounded=0;orthogonalLoop=1;jettySize=auto;html=1;exitX=0;exitY=0.5;exitDx=0;exitDy=0;entryX=1;entryY=0.5;entryDx=0;entryDy=0;" edge="1" parent="1" source="wsuwHOxKP2U0V3yTg3ei-8" target="wsuwHOxKP2U0V3yTg3ei-32">
          <mxGeometry relative="1" as="geometry" />
        </mxCell>
        <mxCell id="wsuwHOxKP2U0V3yTg3ei-7" style="edgeStyle=none;rounded=0;orthogonalLoop=1;jettySize=auto;html=1;exitX=0;exitY=0.5;exitDx=0;exitDy=0;" edge="1" parent="1" source="wsuwHOxKP2U0V3yTg3ei-8">
          <mxGeometry relative="1" as="geometry">
            <mxPoint x="30" y="420" as="targetPoint" />
          </mxGeometry>
        </mxCell>
        <mxCell id="wsuwHOxKP2U0V3yTg3ei-8" value="Интерфейс" style="rounded=1;whiteSpace=wrap;html=1;arcSize=22;" vertex="1" parent="1">
          <mxGeometry x="140" y="360" width="120" height="40" as="geometry" />
        </mxCell>
        <mxCell id="wsuwHOxKP2U0V3yTg3ei-9" style="edgeStyle=none;rounded=0;orthogonalLoop=1;jettySize=auto;html=1;exitX=1;exitY=0.5;exitDx=0;exitDy=0;" edge="1" parent="1" source="wsuwHOxKP2U0V3yTg3ei-11">
          <mxGeometry relative="1" as="geometry">
            <mxPoint x="960" y="230" as="targetPoint" />
          </mxGeometry>
        </mxCell>
        <mxCell id="wsuwHOxKP2U0V3yTg3ei-10" style="edgeStyle=none;rounded=0;orthogonalLoop=1;jettySize=auto;html=1;exitX=1;exitY=0.5;exitDx=0;exitDy=0;" edge="1" parent="1" source="wsuwHOxKP2U0V3yTg3ei-11">
          <mxGeometry relative="1" as="geometry">
            <mxPoint x="960" y="270" as="targetPoint" />
          </mxGeometry>
        </mxCell>
        <mxCell id="wsuwHOxKP2U0V3yTg3ei-11" value="Проверка правильности ввода данных в поля" style="rounded=1;whiteSpace=wrap;html=1;arcSize=22;" vertex="1" parent="1">
          <mxGeometry x="770" y="250" width="120" height="40" as="geometry" />
        </mxCell>
        <mxCell id="wsuwHOxKP2U0V3yTg3ei-12" style="edgeStyle=none;rounded=0;orthogonalLoop=1;jettySize=auto;html=1;exitX=1;exitY=0.5;exitDx=0;exitDy=0;" edge="1" parent="1" source="wsuwHOxKP2U0V3yTg3ei-14">
          <mxGeometry relative="1" as="geometry">
            <mxPoint x="960" y="360" as="targetPoint" />
            <mxPoint x="900" y="480" as="sourcePoint" />
          </mxGeometry>
        </mxCell>
        <mxCell id="wsuwHOxKP2U0V3yTg3ei-13" style="edgeStyle=none;rounded=0;orthogonalLoop=1;jettySize=auto;html=1;exitX=1;exitY=0.5;exitDx=0;exitDy=0;" edge="1" parent="1" source="wsuwHOxKP2U0V3yTg3ei-14">
          <mxGeometry relative="1" as="geometry">
            <mxPoint x="960" y="320" as="targetPoint" />
          </mxGeometry>
        </mxCell>
        <mxCell id="wsuwHOxKP2U0V3yTg3ei-14" value="Выбор вида транспорта и режима" style="rounded=1;whiteSpace=wrap;html=1;arcSize=22;" vertex="1" parent="1">
          <mxGeometry x="760" y="330" width="120" height="40" as="geometry" />
        </mxCell>
        <mxCell id="wsuwHOxKP2U0V3yTg3ei-15" style="edgeStyle=none;rounded=0;orthogonalLoop=1;jettySize=auto;html=1;exitX=0;exitY=0.5;exitDx=0;exitDy=0;" edge="1" parent="1" source="wsuwHOxKP2U0V3yTg3ei-18">
          <mxGeometry relative="1" as="geometry">
            <mxPoint x="-160" y="350" as="targetPoint" />
          </mxGeometry>
        </mxCell>
        <mxCell id="wsuwHOxKP2U0V3yTg3ei-16" style="edgeStyle=none;rounded=0;orthogonalLoop=1;jettySize=auto;html=1;exitX=0;exitY=0.5;exitDx=0;exitDy=0;" edge="1" parent="1" source="wsuwHOxKP2U0V3yTg3ei-18">
          <mxGeometry relative="1" as="geometry">
            <mxPoint x="-160" y="390" as="targetPoint" />
          </mxGeometry>
        </mxCell>
        <mxCell id="wsuwHOxKP2U0V3yTg3ei-17" style="edgeStyle=none;rounded=0;orthogonalLoop=1;jettySize=auto;html=1;exitX=0;exitY=0.5;exitDx=0;exitDy=0;" edge="1" parent="1" source="wsuwHOxKP2U0V3yTg3ei-18">
          <mxGeometry relative="1" as="geometry">
            <mxPoint x="-160" y="320" as="targetPoint" />
          </mxGeometry>
        </mxCell>
        <mxCell id="wsuwHOxKP2U0V3yTg3ei-18" value="Панель выбора времени" style="rounded=1;whiteSpace=wrap;html=1;arcSize=22;" vertex="1" parent="1">
          <mxGeometry x="-80" y="340" width="120" height="40" as="geometry" />
        </mxCell>
        <mxCell id="wsuwHOxKP2U0V3yTg3ei-19" style="edgeStyle=none;rounded=0;orthogonalLoop=1;jettySize=auto;html=1;exitX=0;exitY=0.5;exitDx=0;exitDy=0;" edge="1" parent="1" source="wsuwHOxKP2U0V3yTg3ei-21">
          <mxGeometry relative="1" as="geometry">
            <mxPoint x="-160" y="290" as="targetPoint" />
          </mxGeometry>
        </mxCell>
        <mxCell id="wsuwHOxKP2U0V3yTg3ei-20" style="edgeStyle=none;rounded=0;orthogonalLoop=1;jettySize=auto;html=1;exitX=0;exitY=0.25;exitDx=0;exitDy=0;" edge="1" parent="1" source="wsuwHOxKP2U0V3yTg3ei-21">
          <mxGeometry relative="1" as="geometry">
            <mxPoint x="-160" y="230" as="targetPoint" />
          </mxGeometry>
        </mxCell>
        <mxCell id="wsuwHOxKP2U0V3yTg3ei-21" value="Панель выбора адреса" style="rounded=1;whiteSpace=wrap;html=1;arcSize=22;" vertex="1" parent="1">
          <mxGeometry x="-80" y="250" width="120" height="40" as="geometry" />
        </mxCell>
        <mxCell id="wsuwHOxKP2U0V3yTg3ei-22" value="Создай манйдмэп согласно &lt;br&gt;требованиям. В шаблоне можно&lt;br&gt;добавлять или убирать любые стрелки&lt;br&gt;и элементы.&lt;br&gt;&lt;br&gt;&lt;span&gt;Эту пометку перед &lt;br&gt;началом работы удали.&lt;/span&gt;" style="ellipse;shape=doubleEllipse;whiteSpace=wrap;html=1;strokeWidth=3;fillColor=#dae8fc;" vertex="1" parent="1">
          <mxGeometry x="-1.5987211554602254e-14" y="-60" width="266.67" height="160" as="geometry" />
        </mxCell>
        <mxCell id="wsuwHOxKP2U0V3yTg3ei-23" style="edgeStyle=none;rounded=0;orthogonalLoop=1;jettySize=auto;html=1;exitX=1;exitY=0.5;exitDx=0;exitDy=0;entryX=0;entryY=0.5;entryDx=0;entryDy=0;" edge="1" parent="1" source="wsuwHOxKP2U0V3yTg3ei-27" target="wsuwHOxKP2U0V3yTg3ei-14">
          <mxGeometry relative="1" as="geometry" />
        </mxCell>
        <mxCell id="wsuwHOxKP2U0V3yTg3ei-24" style="edgeStyle=none;rounded=0;orthogonalLoop=1;jettySize=auto;html=1;exitX=1;exitY=0.5;exitDx=0;exitDy=0;entryX=0;entryY=0.5;entryDx=0;entryDy=0;" edge="1" parent="1" source="wsuwHOxKP2U0V3yTg3ei-27" target="wsuwHOxKP2U0V3yTg3ei-29">
          <mxGeometry relative="1" as="geometry">
            <mxPoint x="760" y="380" as="targetPoint" />
          </mxGeometry>
        </mxCell>
        <mxCell id="wsuwHOxKP2U0V3yTg3ei-25" style="edgeStyle=none;rounded=0;orthogonalLoop=1;jettySize=auto;html=1;exitX=1;exitY=0.5;exitDx=0;exitDy=0;entryX=0;entryY=0.5;entryDx=0;entryDy=0;" edge="1" parent="1" source="wsuwHOxKP2U0V3yTg3ei-27" target="wsuwHOxKP2U0V3yTg3ei-11">
          <mxGeometry relative="1" as="geometry">
            <mxPoint x="770" y="500" as="targetPoint" />
          </mxGeometry>
        </mxCell>
        <mxCell id="wsuwHOxKP2U0V3yTg3ei-26" style="edgeStyle=none;rounded=0;orthogonalLoop=1;jettySize=auto;html=1;exitX=1;exitY=0.5;exitDx=0;exitDy=0;" edge="1" parent="1" source="wsuwHOxKP2U0V3yTg3ei-27">
          <mxGeometry relative="1" as="geometry">
            <mxPoint x="760" y="420" as="targetPoint" />
          </mxGeometry>
        </mxCell>
        <mxCell id="wsuwHOxKP2U0V3yTg3ei-27" value="Логика" style="rounded=1;whiteSpace=wrap;html=1;arcSize=22;" vertex="1" parent="1">
          <mxGeometry x="530" y="360" width="120" height="40" as="geometry" />
        </mxCell>
        <mxCell id="wsuwHOxKP2U0V3yTg3ei-28" style="edgeStyle=none;rounded=0;orthogonalLoop=1;jettySize=auto;html=1;exitX=1;exitY=0.5;exitDx=0;exitDy=0;" edge="1" parent="1" source="wsuwHOxKP2U0V3yTg3ei-29">
          <mxGeometry relative="1" as="geometry">
            <mxPoint x="960" y="460" as="targetPoint" />
          </mxGeometry>
        </mxCell>
        <mxCell id="wsuwHOxKP2U0V3yTg3ei-29" value="Расчёт времени и стоимости" style="rounded=1;whiteSpace=wrap;html=1;arcSize=22;" vertex="1" parent="1">
          <mxGeometry x="760" y="440" width="120" height="40" as="geometry" />
        </mxCell>
        <mxCell id="wsuwHOxKP2U0V3yTg3ei-30" style="rounded=0;orthogonalLoop=1;jettySize=auto;html=1;exitX=0;exitY=0.5;exitDx=0;exitDy=0;" edge="1" parent="1" source="wsuwHOxKP2U0V3yTg3ei-32">
          <mxGeometry relative="1" as="geometry">
            <mxPoint x="-160" y="440" as="targetPoint" />
          </mxGeometry>
        </mxCell>
        <mxCell id="wsuwHOxKP2U0V3yTg3ei-31" style="edgeStyle=none;rounded=0;orthogonalLoop=1;jettySize=auto;html=1;exitX=0;exitY=0.5;exitDx=0;exitDy=0;" edge="1" parent="1" source="wsuwHOxKP2U0V3yTg3ei-32">
          <mxGeometry relative="1" as="geometry">
            <mxPoint x="-160" y="520" as="targetPoint" />
          </mxGeometry>
        </mxCell>
        <mxCell id="wsuwHOxKP2U0V3yTg3ei-32" value="Панель выбора&lt;br&gt;вида транспорта и режима" style="rounded=1;whiteSpace=wrap;html=1;arcSize=22;" vertex="1" parent="1">
          <mxGeometry x="-80" y="460" width="120" height="40" as="geometry" />
        </mxCell>
      </root>
    </mxGraphModel>
  </diagram>
</mxfile>
